<svg width="688" height="660" viewBox="0 0 688 660" fill="none" xmlns="http://www.w3.org/2000/svg">
<path d="M230.119 530.9C230.119 533.626 226.929 535.808 222.906 535.808C218.329 536.217 215.139 534.035 215.139 530.9C215.139 528.173 218.329 525.991 222.352 525.991C226.513 525.582 230.119 527.764 230.119 530.9ZM186.981 524.764C186.01 527.491 188.784 530.627 192.945 531.445C196.552 532.808 200.713 531.445 201.545 528.718C202.377 525.991 199.742 522.856 195.581 521.629C191.974 520.674 187.952 522.038 186.981 524.764ZM248.29 522.447C244.268 523.401 241.494 525.991 241.91 529.127C242.326 531.854 245.932 533.626 250.094 532.672C254.116 531.718 256.89 529.127 256.474 526.4C256.058 523.81 252.313 522.038 248.29 522.447ZM339.561 0C147.171 0 0 143.564 0 332.664C0 483.863 96.8194 613.248 235.113 658.785C252.868 661.92 259.11 651.15 259.11 642.288C259.11 633.835 258.694 587.207 258.694 558.576C258.694 558.576 161.597 579.027 141.206 517.947C141.206 517.947 125.394 478.273 102.645 468.048C102.645 468.048 70.8806 446.643 104.865 447.052C104.865 447.052 139.403 449.779 158.406 482.227C188.784 534.853 239.69 519.72 259.526 510.722C262.716 488.908 271.732 473.774 281.719 464.776C204.181 456.323 125.948 445.279 125.948 314.122C125.948 276.629 136.49 257.815 158.684 233.819C155.077 224.957 143.287 188.419 162.29 141.246C191.281 132.384 258 178.057 258 178.057C285.742 170.422 315.565 166.469 345.11 166.469C374.655 166.469 404.477 170.422 432.219 178.057C432.219 178.057 498.939 132.248 527.929 141.246C546.932 188.555 535.142 224.957 531.535 233.819C553.729 257.951 567.323 276.766 567.323 314.122C567.323 445.688 485.623 456.186 408.084 464.776C420.845 475.546 431.665 495.997 431.665 528.036C431.665 573.982 431.248 630.835 431.248 642.015C431.248 650.877 437.629 661.648 455.245 658.512C593.955 613.248 688 483.863 688 332.664C688 143.564 531.952 0 339.561 0ZM134.826 470.229C133.023 471.593 133.439 474.728 135.797 477.319C138.016 479.5 141.206 480.455 143.01 478.682C144.813 477.319 144.397 474.183 142.039 471.593C139.819 469.411 136.629 468.457 134.826 470.229ZM119.845 459.186C118.874 460.958 120.261 463.14 123.035 464.503C125.255 465.866 128.029 465.457 129 463.549C129.971 461.776 128.584 459.595 125.81 458.232C123.035 457.414 120.816 457.822 119.845 459.186ZM164.787 507.722C162.568 509.495 163.4 513.585 166.59 516.175C169.781 519.311 173.803 519.72 175.606 517.538C177.41 515.766 176.577 511.676 173.803 509.086C170.752 505.95 166.59 505.541 164.787 507.722ZM148.974 487.681C146.755 489.044 146.755 492.589 148.974 495.724C151.194 498.86 154.939 500.224 156.742 498.86C158.961 497.088 158.961 493.543 156.742 490.407C154.8 487.272 151.194 485.908 148.974 487.681Z" fill="url(#paint0_linear)"/>
<defs>
<linearGradient id="paint0_linear" x1="344" y1="0" x2="344" y2="659.34" gradientUnits="userSpaceOnUse">
<stop stop-color="white" stop-opacity="0.37"/>
<stop offset="0.734375" stop-color="white" stop-opacity="0"/>
</linearGradient>
</defs>
</svg>
